<?xml version="1.0" encoding="utf-8"?>
<!-- Generator: Adobe Illustrator 26.0.1, SVG Export Plug-In . SVG Version: 6.00 Build 0)  -->
<svg version="1.1" id="Layer_1" xmlns="http://www.w3.org/2000/svg" xmlns:xlink="http://www.w3.org/1999/xlink" x="0px" y="0px"
	 viewBox="0 0 200 200" style="enable-background:new 0 0 200 200;" xml:space="preserve">
<style type="text/css">
	.st0{fill:#B3B3B2;stroke:#000000;stroke-width:0.3988;stroke-miterlimit:10;}
	.st1{stroke:#333333;stroke-width:0.3988;stroke-miterlimit:10;}
</style>
<g>
	<ellipse class="st0" cx="100" cy="100" rx="98.84" ry="98.78"/>
	<path class="st1" d="M100,5.92C48.01,5.92,5.85,48.04,5.85,100s42.15,94.08,94.15,94.08s94.15-42.12,94.15-94.08
		S151.99,5.92,100,5.92z M99.95,132.46c-17.99,0-32.57-14.57-32.57-32.54c0-17.98,14.58-32.54,32.57-32.54
		c17.98,0,32.57,14.57,32.57,32.54C132.52,117.89,117.94,132.46,99.95,132.46z"/>
	<path class="st1" d="M100,13.91c-47.58,0-86.15,38.54-86.15,86.09c0,47.54,38.57,86.08,86.15,86.08
		c47.58,0,86.14-38.54,86.14-86.08C186.14,52.45,147.58,13.91,100,13.91z M100,132.55c-17.99,0-32.57-14.57-32.57-32.54
		c0-17.98,14.58-32.54,32.57-32.54c17.98,0,32.57,14.57,32.57,32.54C132.57,117.97,117.99,132.55,100,132.55z"/>
	<path class="st1" d="M100,11.24c-49.06,0-88.82,39.73-88.82,88.76c0,49.02,39.76,88.76,88.82,88.76
		c49.05,0,88.82-39.74,88.82-88.76C188.82,50.98,149.05,11.24,100,11.24z M100,132.54c-17.99,0-32.57-14.57-32.57-32.54
		c0-17.98,14.58-32.54,32.57-32.54c17.98,0,32.57,14.57,32.57,32.54C132.57,117.97,117.98,132.54,100,132.54z"/>
	<path class="st1" d="M100,17.16c-45.78,0-82.9,37.09-82.9,82.84s37.11,82.84,82.9,82.84c45.78,0,82.9-37.09,82.9-82.84
		S145.78,17.16,100,17.16z M100,132.54c-17.99,0-32.57-14.57-32.57-32.54c0-17.98,14.58-32.54,32.57-32.54
		c17.98,0,32.57,14.57,32.57,32.54C132.57,117.97,117.98,132.54,100,132.54z"/>
	<path class="st1" d="M100,20.12c-44.15,0-79.93,35.76-79.93,79.88c0,44.11,35.79,79.88,79.93,79.88
		c44.15,0,79.93-35.77,79.93-79.88C179.93,55.88,144.15,20.12,100,20.12z M100,132.54c-17.99,0-32.57-14.57-32.57-32.54
		c0-17.98,14.58-32.54,32.57-32.54c17.98,0,32.57,14.57,32.57,32.54C132.57,117.97,117.98,132.54,100,132.54z"/>
	<path class="st1" d="M100,26.03c-40.88,0-74.01,33.11-74.01,73.97c0,40.85,33.13,73.97,74.01,73.97
		c40.87,0,74.01-33.12,74.01-73.97C174.01,59.15,140.87,26.03,100,26.03z M100,132.54c-17.99,0-32.57-14.57-32.57-32.54
		c0-17.98,14.58-32.54,32.57-32.54c17.98,0,32.57,14.57,32.57,32.54C132.57,117.97,117.98,132.54,100,132.54z"/>
	<path class="st1" d="M100,28.99c-39.25,0-71.05,31.79-71.05,71.01c0,39.21,31.81,71.01,71.05,71.01
		c39.24,0,71.05-31.79,71.05-71.01C171.05,60.78,139.24,28.99,100,28.99z M100,132.54c-17.99,0-32.57-14.57-32.57-32.54
		c0-17.98,14.58-32.54,32.57-32.54c17.98,0,32.57,14.57,32.57,32.54C132.57,117.97,117.98,132.54,100,132.54z"/>
	<path class="st1" d="M100,31.95c-37.61,0-68.09,30.46-68.09,68.05c0,37.58,30.48,68.05,68.09,68.05c37.6,0,68.09-30.47,68.09-68.05
		C168.09,62.41,137.6,31.95,100,31.95z M100,132.54c-17.99,0-32.57-14.57-32.57-32.54c0-17.98,14.58-32.54,32.57-32.54
		c17.98,0,32.57,14.57,32.57,32.54C132.57,117.97,117.98,132.54,100,132.54z"/>
	<path class="st1" d="M100,37.87c-34.34,0-62.17,27.82-62.17,62.13s27.84,62.13,62.17,62.13c34.34,0,62.17-27.82,62.17-62.13
		S134.34,37.87,100,37.87z M100,132.54c-17.99,0-32.57-14.57-32.57-32.54c0-17.98,14.58-32.54,32.57-32.54
		c17.98,0,32.57,14.57,32.57,32.54C132.57,117.97,117.98,132.54,100,132.54z"/>
	<path class="st1" d="M100,43.79c-31.07,0-56.25,25.17-56.25,56.21c0,31.04,25.18,56.21,56.25,56.21
		c31.06,0,56.25-25.17,56.25-56.21C156.25,68.95,131.06,43.79,100,43.79z M100,132.54c-17.99,0-32.57-14.57-32.57-32.54
		c0-17.98,14.58-32.54,32.57-32.54c17.98,0,32.57,14.57,32.57,32.54C132.57,117.97,117.98,132.54,100,132.54z"/>
	<path class="st1" d="M100,49.7c-27.8,0-50.33,22.52-50.33,50.3c0,27.78,22.53,50.3,50.33,50.3c27.79,0,50.33-22.52,50.33-50.3
		C150.33,72.22,127.79,49.7,100,49.7z M100,132.54c-17.99,0-32.57-14.57-32.57-32.54c0-17.98,14.58-32.54,32.57-32.54
		c17.98,0,32.57,14.57,32.57,32.54C132.57,117.97,117.98,132.54,100,132.54z"/>
	<path class="st1" d="M100,55.62c-24.53,0-44.41,19.86-44.41,44.38c0,24.51,19.88,44.38,44.41,44.38
		c24.53,0,44.41-19.87,44.41-44.38C144.41,75.48,124.53,55.62,100,55.62z M100,132.54c-17.99,0-32.57-14.57-32.57-32.54
		c0-17.98,14.58-32.54,32.57-32.54c17.98,0,32.57,14.57,32.57,32.54C132.57,117.97,117.98,132.54,100,132.54z"/>
	<path class="st1" d="M100,61.54c-21.26,0-38.49,17.22-38.49,38.46c0,21.24,17.23,38.46,38.49,38.46
		c21.26,0,38.49-17.23,38.49-38.46C138.49,78.76,121.26,61.54,100,61.54z M100,132.54c-17.99,0-32.57-14.57-32.57-32.54
		c0-17.98,14.58-32.54,32.57-32.54c17.98,0,32.57,14.57,32.57,32.54C132.57,117.97,117.98,132.54,100,132.54z"/>
	<path class="st1" d="M100,67.46c-17.99,0-32.57,14.57-32.57,32.54c0,17.97,14.58,32.54,32.57,32.54
		c17.99,0,32.57-14.58,32.57-32.54C132.57,82.03,117.99,67.46,100,67.46z M100,127.54c-15.22,0-27.56-12.33-27.56-27.54
		c0-15.21,12.34-27.54,27.56-27.54c15.22,0,27.56,12.33,27.56,27.54C127.56,115.21,115.22,127.54,100,127.54z"/>
	<circle cx="100" cy="100" r="6.28"/>
</g>
</svg>
