<?xml version="1.0" encoding="utf-8"?>
<!-- Generator: Adobe Illustrator 26.0.1, SVG Export Plug-In . SVG Version: 6.00 Build 0)  -->
<svg version="1.1" id="Layer_1" xmlns="http://www.w3.org/2000/svg" xmlns:xlink="http://www.w3.org/1999/xlink" x="0px" y="0px"
	 viewBox="0 0 340 276.67" style="enable-background:new 0 0 340 276.67;" xml:space="preserve">
<style type="text/css">
	.st0{fill:#343434;stroke:#FFFFFF;stroke-width:1.8326;stroke-miterlimit:10;}
	.st1{fill:#4E4D4D;stroke:#020203;stroke-width:0.4581;stroke-miterlimit:10;}
	.st2{fill:#006633;stroke:#FFFFFF;stroke-width:1.8326;stroke-miterlimit:10;}
	.st3{fill:#B4B4B4;stroke:#020203;stroke-width:0.4581;stroke-miterlimit:10;}
	.st4{fill:none;stroke:#020203;stroke-width:0.4581;stroke-miterlimit:10;}
	.st5{fill:#020203;}
	.st6{fill:#020203;stroke:#343434;stroke-width:0.4581;stroke-miterlimit:10;}
	.st7{fill:#B4B4B4;}
	.st8{fill:#020203;stroke:#020203;stroke-width:0.4581;stroke-miterlimit:10;}
</style>
<g>
	<path class="st0" d="M1.07,0.66V275.5h338.17V0.66H1.07z M266.15,182.74l1.84,0.92l0.91-1.38c7.34-12.36,4.59-8.24,5.52-14.45
		c0.98-6.54-4.14-69.37-4.6-77.16c-0.46-7.78,9.21-44.11,9.21-44.11l-4.17-1.06l1.76-12.26l-1.76-0.28l3.67-20.62l18.78,3.67
		l-3.98,19.91l-1.4-0.22l-3.32,13.29l-4.86-1.23c-1.65,6.33-9.3,35.97-8.89,42.91c0.46,7.79,5.58,70.62,4.6,77.16
		c-0.93,6.21,1.82,2.09-5.52,14.45l-1.83,3.21l1.86,1.14l-0.99,1.61l-7.24,11.83l3.86,2.41l-18.96,30.27l-1.67,2.67l-1.74,2.78
		l-0.33-0.21l-14.43-9.02l22.24-35.51l0.13-0.21l3.58,2.24l4.39-7.25L266.15,182.74z M258.42,195.49l-0.06,0.08l7.34,4.58l0.04-0.08
		L258.42,195.49z M258.42,195.49l-0.06,0.08l7.34,4.58l0.04-0.08L258.42,195.49z M258.42,195.49l-0.06,0.08l7.34,4.58l0.04-0.08
		L258.42,195.49z M258.42,195.49l-0.06,0.08l7.34,4.58l0.04-0.08L258.42,195.49z M258.42,195.49l-0.06,0.08l7.34,4.58l0.04-0.08
		L258.42,195.49z M258.42,195.49l-0.06,0.08l7.34,4.58l0.04-0.08L258.42,195.49z M258.36,195.57l7.34,4.58l0.04-0.08l-7.32-4.58
		L258.36,195.57z M258.42,195.49l-0.06,0.08l7.34,4.58l0.04-0.08L258.42,195.49z M258.42,195.49l-0.06,0.08l7.34,4.58l0.04-0.08
		L258.42,195.49z M258.42,195.49l-0.06,0.08l7.34,4.58l0.04-0.08L258.42,195.49z M258.42,195.49l-0.06,0.08l7.34,4.58l0.04-0.08
		L258.42,195.49z M258.42,195.49l-0.06,0.08l7.34,4.58l0.04-0.08L258.42,195.49z M258.42,195.49l-0.06,0.08l7.34,4.58l0.04-0.08
		L258.42,195.49z"/>
	<polygon class="st1" points="328.93,188.24 328.93,264.74 16.42,264.74 16.42,188.24 262.81,188.24 258.42,195.49 254.84,193.25 
		232.47,228.97 247.23,238.2 269.6,202.48 265.74,200.07 272.98,188.24 	"/>
	<polygon class="st2" points="297.31,16.01 293.33,35.92 291.93,35.7 288.61,48.99 283.75,47.76 279.03,46.56 274.86,45.5 
		276.62,33.24 274.86,32.96 278.53,12.34 	"/>
	<path class="st3" d="M274.86,90.76c0.46,7.79,5.58,70.62,4.6,77.16c-0.93,6.21,1.82,2.09-5.52,14.45l-1.83,3.21l1.86,1.14
		L266,200.33l-8-5l8.15-12.5l1.84,0.92l0.91-1.38c7.34-12.36,4.59-8.24,5.52-14.45c0.98-6.54-4.14-69.37-4.6-77.16
		c-0.46-7.78,9.21-44.11,9.21-44.11l4.72,1.2C282.1,54.18,274.45,83.82,274.86,90.76z"/>
	<polygon class="st4" points="265.74,200.07 265.7,200.15 258.36,195.57 258.42,195.49 	"/>
	<polygon class="st1" points="258.36,195.57 258.42,195.49 265.74,200.07 265.7,200.15 	"/>
	
		<rect x="63.85" y="180.23" transform="matrix(0.8873 0.4612 -0.4612 0.8873 101.8896 -11.5709)" class="st5" width="21.53" height="44.89"/>
	<ellipse class="st3" cx="139.34" cy="119.19" rx="113.52" ry="113.48"/>
	<path class="st6" d="M139.23,11.26c-59.72,0-108.13,48.4-108.13,108.09s48.41,108.09,108.13,108.09
		c59.72,0,108.13-48.4,108.13-108.09S198.94,11.26,139.23,11.26z M139.17,156.65c-20.66,0-37.4-16.74-37.4-37.39
		c0-20.65,16.74-37.39,37.4-37.39c20.65,0,37.4,16.74,37.4,37.39C176.57,139.9,159.82,156.65,139.17,156.65z"/>
	<path class="st6" d="M139.23,20.45c-54.64,0-98.94,44.28-98.94,98.91c0,54.62,44.3,98.9,98.94,98.9c54.64,0,98.94-44.28,98.94-98.9
		C238.16,64.73,193.87,20.45,139.23,20.45z M139.23,156.75c-20.66,0-37.4-16.74-37.4-37.39c0-20.65,16.74-37.39,37.4-37.39
		c20.65,0,37.4,16.74,37.4,37.39C176.63,140,159.88,156.75,139.23,156.75z"/>
	<path class="st6" d="M139.23,17.38c-56.34,0-102.01,45.65-102.01,101.97c0,56.32,45.67,101.97,102.01,101.97
		c56.34,0,102.01-45.66,102.01-101.97C241.23,63.03,195.56,17.38,139.23,17.38z M139.23,156.74c-20.66,0-37.4-16.74-37.4-37.39
		c0-20.65,16.74-37.39,37.4-37.39c20.65,0,37.4,16.74,37.4,37.39C176.63,140,159.88,156.74,139.23,156.74z"/>
	<path class="st6" d="M139.23,24.18c-52.58,0-95.21,42.61-95.21,95.17s42.63,95.17,95.21,95.17c52.58,0,95.21-42.61,95.21-95.17
		S191.81,24.18,139.23,24.18z M139.23,156.74c-20.66,0-37.4-16.74-37.4-37.39c0-20.65,16.74-37.39,37.4-37.39
		c20.65,0,37.4,16.74,37.4,37.39C176.63,140,159.88,156.74,139.23,156.74z"/>
	<path class="st6" d="M139.23,27.58c-50.71,0-91.81,41.09-91.81,91.78c0,50.68,41.1,91.78,91.81,91.78
		c50.71,0,91.81-41.1,91.81-91.78C231.03,68.67,189.93,27.58,139.23,27.58z M139.23,156.74c-20.66,0-37.4-16.74-37.4-37.39
		c0-20.65,16.74-37.39,37.4-37.39c20.65,0,37.4,16.74,37.4,37.39C176.63,140,159.88,156.74,139.23,156.74z"/>
	<path class="st6" d="M139.23,34.38c-46.95,0-85.01,38.04-85.01,84.98c0,46.93,38.06,84.98,85.01,84.98
		c46.94,0,85.01-38.05,85.01-84.98C224.23,72.42,186.17,34.38,139.23,34.38z M139.23,156.74c-20.66,0-37.4-16.74-37.4-37.39
		c0-20.65,16.74-37.39,37.4-37.39c20.65,0,37.4,16.74,37.4,37.39C176.63,140,159.88,156.74,139.23,156.74z"/>
	<path class="st6" d="M139.23,37.77c-45.07,0-81.61,36.52-81.61,81.58c0,45.05,36.53,81.58,81.61,81.58
		c45.07,0,81.61-36.53,81.61-81.58C220.83,74.29,184.29,37.77,139.23,37.77z M139.23,156.74c-20.66,0-37.4-16.74-37.4-37.39
		c0-20.65,16.74-37.39,37.4-37.39c20.65,0,37.4,16.74,37.4,37.39C176.63,140,159.88,156.74,139.23,156.74z"/>
	<path class="st6" d="M139.23,41.17c-43.2,0-78.21,35-78.21,78.18c0,43.18,35.01,78.18,78.21,78.18c43.19,0,78.21-35,78.21-78.18
		C217.43,76.17,182.42,41.17,139.23,41.17z M139.23,156.74c-20.66,0-37.4-16.74-37.4-37.39c0-20.65,16.74-37.39,37.4-37.39
		c20.65,0,37.4,16.74,37.4,37.39C176.63,140,159.88,156.74,139.23,156.74z"/>
	<path class="st6" d="M139.23,47.97c-39.44,0-71.41,31.96-71.41,71.38s31.97,71.38,71.41,71.38s71.41-31.96,71.41-71.38
		S178.66,47.97,139.23,47.97z M139.23,156.74c-20.66,0-37.4-16.74-37.4-37.39c0-20.65,16.74-37.39,37.4-37.39
		c20.65,0,37.4,16.74,37.4,37.39C176.63,140,159.88,156.74,139.23,156.74z"/>
	<path class="st6" d="M139.23,54.77c-35.68,0-64.61,28.91-64.61,64.58c0,35.66,28.92,64.58,64.61,64.58
		c35.68,0,64.61-28.92,64.61-64.58C203.83,83.68,174.9,54.77,139.23,54.77z M139.23,156.74c-20.66,0-37.4-16.74-37.4-37.39
		c0-20.65,16.74-37.39,37.4-37.39c20.65,0,37.4,16.74,37.4,37.39C176.63,140,159.88,156.74,139.23,156.74z"/>
	<path class="st6" d="M139.23,61.57c-31.93,0-57.81,25.87-57.81,57.78c0,31.91,25.88,57.78,57.81,57.78
		c31.92,0,57.81-25.87,57.81-57.78C197.03,87.44,171.15,61.57,139.23,61.57z M139.23,156.74c-20.66,0-37.4-16.74-37.4-37.39
		c0-20.65,16.74-37.39,37.4-37.39c20.65,0,37.4,16.74,37.4,37.39C176.63,140,159.88,156.74,139.23,156.74z"/>
	<path class="st6" d="M139.23,68.37c-28.17,0-51,22.82-51,50.99c0,28.16,22.84,50.99,51,50.99c28.17,0,51-22.83,51-50.99
		C190.23,91.19,167.39,68.37,139.23,68.37z M139.23,156.74c-20.66,0-37.4-16.74-37.4-37.39c0-20.65,16.74-37.39,37.4-37.39
		c20.65,0,37.4,16.74,37.4,37.39C176.63,140,159.88,156.74,139.23,156.74z"/>
	<path class="st6" d="M139.23,75.16c-24.41,0-44.2,19.78-44.2,44.19c0,24.4,19.79,44.19,44.2,44.19c24.41,0,44.2-19.79,44.2-44.19
		C183.43,94.95,163.64,75.16,139.23,75.16z M139.23,156.74c-20.66,0-37.4-16.74-37.4-37.39c0-20.65,16.74-37.39,37.4-37.39
		c20.65,0,37.4,16.74,37.4,37.39C176.63,140,159.88,156.74,139.23,156.74z"/>
	<path class="st6" d="M139.23,81.96c-20.66,0-37.4,16.74-37.4,37.39c0,20.65,16.75,37.39,37.4,37.39c20.66,0,37.4-16.74,37.4-37.39
		C176.63,98.7,159.88,81.96,139.23,81.96z M139.23,150.99c-17.48,0-31.65-14.17-31.65-31.64c0-17.48,14.17-31.64,31.65-31.64
		c17.48,0,31.65,14.16,31.65,31.64C170.87,136.82,156.7,150.99,139.23,150.99z"/>
	<polygon class="st7" points="246.72,234.41 254.6,237.97 261.8,239.77 255.84,235.19 248.05,231.53 	"/>
	<polygon class="st8" points="269.14,202.48 246.77,238.2 232.01,228.97 254.38,193.25 257.96,195.49 257.91,195.57 265.24,200.15 
		265.28,200.07 	"/>
	<g>
		<circle class="st7" cx="255.54" cy="197.25" r="1.45"/>
		<circle class="st7" cx="258.99" cy="199.4" r="1.45"/>
		<circle class="st7" cx="262.45" cy="201.56" r="1.45"/>
		<circle class="st7" cx="265.9" cy="203.71" r="1.45"/>
	</g>
	<g>
		<circle class="st7" cx="253.36" cy="200.75" r="1.45"/>
		<circle class="st7" cx="256.81" cy="202.9" r="1.45"/>
		<circle class="st7" cx="260.27" cy="205.06" r="1.45"/>
		<circle class="st7" cx="263.72" cy="207.21" r="1.45"/>
	</g>
	<g>
		<circle class="st7" cx="251.17" cy="204.25" r="1.45"/>
		<circle class="st7" cx="254.63" cy="206.4" r="1.45"/>
		<circle class="st7" cx="258.09" cy="208.55" r="1.45"/>
		<circle class="st7" cx="261.54" cy="210.71" r="1.45"/>
	</g>
	<g>
		<circle class="st7" cx="248.99" cy="207.75" r="1.45"/>
		<circle class="st7" cx="252.45" cy="209.9" r="1.45"/>
		<circle class="st7" cx="255.91" cy="212.05" r="1.45"/>
		<circle class="st7" cx="259.36" cy="214.21" r="1.45"/>
	</g>
	<g>
		<circle class="st7" cx="239.31" cy="225.24" r="2.38"/>
		<circle class="st7" cx="247.37" cy="230.34" r="2.38"/>
	</g>
</g>
<circle class="st5" cx="139.22" cy="119.74" r="10.22"/>
</svg>
